<?xml version="1.0" standalone="no"?>
<!DOCTYPE svg PUBLIC "-//W3C//DTD SVG 20010904//EN"
 "http://www.w3.org/TR/2001/REC-SVG-20010904/DTD/svg10.dtd">
<svg version="1.0" xmlns="http://www.w3.org/2000/svg"
 width="300.000000pt" height="80.000000pt" viewBox="0 0 300.000000 80.000000"
 preserveAspectRatio="xMidYMid meet">
<metadata>
Created by potrace 1.10, written by Peter Selinger 2001-2011
</metadata>
<g transform="translate(0.000000,80.000000) scale(0.100000,-0.100000)"
fill="#000000" stroke="none">
<path d="M244 558 c3 -13 18 -78 33 -145 l27 -123 31 0 c30 0 31 0 49 88 11
48 21 91 24 97 3 5 15 -33 27 -85 21 -94 22 -95 53 -98 18 -2 32 0 32 5 0 4
14 66 30 137 17 72 30 133 30 138 0 4 -13 8 -28 8 -29 0 -29 -1 -47 -100 -9
-55 -18 -100 -20 -100 -2 0 -13 45 -25 100 -22 96 -24 100 -50 100 -25 0 -27
-4 -44 -92 -11 -51 -22 -96 -25 -101 -4 -4 -13 28 -20 70 -20 125 -19 123 -53
123 -27 0 -30 -3 -24 -22z"/>
<path d="M1070 435 l0 -145 30 0 30 0 0 98 0 97 58 -97 c53 -91 59 -98 90 -98
l32 0 0 145 0 145 -32 0 -33 0 3 -63 c2 -35 2 -79 0 -97 -3 -34 -5 -32 -61 63
-52 88 -61 97 -87 97 l-30 0 0 -145z"/>
<path d="M1917 560 c-61 -48 -43 -98 50 -143 70 -33 86 -58 52 -80 -23 -14
-70 0 -76 23 -4 15 -14 20 -39 20 -38 0 -38 0 -23 -33 15 -33 60 -57 109 -57
119 0 150 105 45 153 -77 35 -90 43 -93 59 -8 40 80 48 93 8 4 -14 15 -20 36
-20 38 0 38 22 0 61 -25 24 -38 29 -79 29 -34 0 -57 -6 -75 -20z"/>
<path d="M2150 530 c0 -23 -4 -30 -20 -30 -13 0 -20 -7 -20 -20 0 -13 7 -20
20 -20 17 0 19 -8 22 -77 3 -73 5 -79 30 -90 14 -7 33 -10 42 -7 23 9 20 41
-4 47 -17 4 -20 14 -20 66 0 54 2 61 20 61 13 0 20 7 20 20 0 13 -7 20 -20 20
-16 0 -20 7 -20 30 0 25 -4 30 -25 30 -21 0 -25 -5 -25 -30z"/>
<path d="M654 500 c-35 -14 -54 -50 -54 -103 0 -40 5 -53 29 -78 61 -60 156
-27 168 58 13 95 -59 157 -143 123z m70 -46 c19 -18 22 -94 4 -112 -35 -35
-85 13 -74 73 6 30 26 54 48 55 4 0 14 -7 22 -16z"/>
<path d="M884 500 c-35 -14 -54 -50 -54 -103 0 -40 5 -53 29 -78 61 -60 156
-27 168 58 13 95 -59 157 -143 123z m70 -46 c19 -18 22 -94 4 -112 -35 -35
-85 13 -74 73 6 30 26 54 48 55 4 0 14 -7 22 -16z"/>
<path d="M1404 500 c-35 -14 -54 -50 -54 -103 0 -40 5 -53 29 -78 24 -23 38
-29 74 -29 54 0 98 28 75 48 -11 9 -22 9 -45 0 -35 -13 -58 -7 -73 21 -10 20
-8 21 60 21 l70 0 0 36 c0 68 -70 111 -136 84z m71 -50 c22 -25 20 -27 -30
-31 -43 -3 -50 13 -18 39 22 16 27 15 48 -8z"/>
<path d="M1560 506 c0 -3 14 -27 31 -55 l31 -50 -31 -51 c-17 -28 -31 -52 -31
-55 0 -3 13 -5 30 -5 24 0 33 7 49 37 l19 38 18 -38 c15 -32 22 -37 51 -37
l34 0 -36 55 -35 55 30 47 c37 58 37 63 2 63 -23 0 -32 -7 -46 -37 l-18 -38
-19 38 c-16 30 -25 37 -49 37 -17 0 -30 -2 -30 -4z"/>
<path d="M2311 497 c-33 -20 -50 -55 -51 -105 0 -94 106 -138 172 -72 28 29
30 35 26 86 -3 37 -11 62 -25 75 -25 26 -90 34 -122 16z m73 -40 c23 -16 27
-87 7 -111 -16 -19 -42 -21 -59 -4 -19 19 -15 105 6 117 22 14 25 13 46 -2z"/>
<path d="M2500 400 l0 -110 31 0 32 0 -5 69 c-6 79 -1 94 36 94 22 0 26 4 26
28 0 34 -23 39 -52 12 -17 -15 -18 -15 -18 0 0 11 -8 17 -25 17 l-25 0 0 -110z"/>
<path d="M2694 500 c-35 -14 -54 -50 -54 -103 0 -40 5 -53 29 -78 24 -23 38
-29 74 -29 54 0 98 28 75 48 -11 9 -22 9 -45 0 -35 -13 -58 -7 -73 21 -10 20
-8 21 60 21 l70 0 0 36 c0 68 -70 111 -136 84z m71 -50 c24 -26 16 -32 -36
-28 l-44 3 23 23 c27 27 34 27 57 2z"/>
</g>
</svg>
