<?xml version="1.0" encoding="iso-8859-1"?>
<!-- Uploaded to: SVG Repo, www.svgrepo.com, Generator: SVG Repo Mixer Tools -->
<svg version="1.1" id="Layer_1" xmlns="http://www.w3.org/2000/svg" xmlns:xlink="http://www.w3.org/1999/xlink" 
	 viewBox="0 0 512 512" xml:space="preserve">
<path style="fill:#ECEDEF;" d="M213.7,18.025c-0.533-2.042-1.855-3.789-3.677-4.857c-1.821-1.069-3.992-1.369-6.036-0.835
	l-98.596,25.72c-4.254,1.109-6.803,5.458-5.692,9.712l14.917,57.183h121.76L213.7,18.025z"/>
<path style="fill:#D9DCDF;" d="M310.55,45.15c-0.2-4.393-3.927-7.795-8.311-7.593l-101.792,4.596
	c-2.109,0.096-4.094,1.024-5.518,2.583c-1.424,1.559-2.171,3.619-2.075,5.727l2.46,54.485h117.937L310.55,45.15z"/>
<path style="fill:#ECEDEF;" d="M454.595,43.163c0.677-2.001,0.531-4.186-0.405-6.08c-0.935-1.893-2.586-3.336-4.584-4.012
	L353.082,0.422c-4.167-1.41-8.683,0.825-10.092,4.99l-33.669,99.535h124.376L454.595,43.163z"/>
<path style="fill:#FFD791;" d="M438.563,96.987H269.268v169.296h177.256V104.947C446.524,100.551,442.96,96.987,438.563,96.987z"/>
<path style="fill:#FFC44F;" d="M289.965,265.752V96.456H112.178c-4.396,0-7.961,3.564-7.961,7.961v60.501l15.921,7.961v50.948
	l-15.921,7.961v33.965c0,0.179,0.015,0.354,0.027,0.531h185.695C289.95,266.106,289.965,265.931,289.965,265.752z"/>
<path style="fill:#ECEDEF;" d="M213.543,223.826v-50.948c0-4.397-3.563-7.961-7.961-7.961H104.218v66.869h101.365
	C209.979,231.786,213.543,228.223,213.543,223.826z"/>
<rect x="269.27" y="243.287" style="fill:#FFC44F;" width="177.256" height="22.998"/>
<path style="fill:#F7B14D;" d="M289.965,265.752v-22.467H104.218v22.467c0,0.179,0.015,0.354,0.027,0.531h185.695
	C289.95,266.106,289.965,265.931,289.965,265.752z"/>
<path style="fill:#8E959F;" d="M404.598,130.952h-93.405c-4.397,0-7.961,3.563-7.961,7.961v25.474
	c0,13.754,11.189,24.943,24.943,24.943h59.439c13.754,0,24.943-11.189,24.943-24.943v-25.474
	C412.559,134.516,408.994,130.952,404.598,130.952z"/>
<path style="fill:#F7B14D;" d="M404.598,130.952h-12.206c4.397,0,7.961,3.563,7.961,7.961v25.474
	c0,13.754-11.189,24.943-24.943,24.943h12.206c13.754,0,24.943-11.189,24.943-24.943v-25.474
	C412.559,134.516,408.994,130.952,404.598,130.952z"/>
<path style="fill:#BF722A;" d="M175.332,146.873h-42.457c-4.397,0-7.961-3.563-7.961-7.961c0-4.397,3.563-7.961,7.961-7.961h42.457
	c4.397,0,7.961,3.563,7.961,7.961S179.729,146.873,175.332,146.873z"/>
<path style="fill:#FFD791;" d="M282.535,318.292V512h156.028c4.397,0,7.961-3.563,7.961-7.961V318.292H282.535z"/>
<path style="fill:#FFC44F;" d="M65.476,318.292v67.4l12.206,7.961V444.6l-12.206,7.961v51.479c0,4.396,3.564,7.961,7.961,7.961
	h216.529V318.292H65.476z"/>
<path style="fill:#ECEDEF;" d="M209.298,385.691H65.476v66.869h143.822c4.396,0,7.961-3.564,7.961-7.961v-50.948
	C217.258,389.256,213.694,385.691,209.298,385.691z"/>
<rect x="269.27" y="318.286" style="fill:#FFC44F;" width="177.256" height="18.044"/>
<rect x="65.476" y="318.286" style="fill:#F7B14D;" width="224.489" height="18.044"/>
<path style="fill:#FFD791;" d="M464.037,258.322h-194.77v66.869h194.77c4.396,0,7.961-3.564,7.961-7.961v-50.948
	C471.998,261.886,468.434,258.322,464.037,258.322z"/>
<path style="fill:#FFC44F;" d="M289.965,258.322H47.963c-4.396,0-7.961,3.564-7.961,7.961v50.948c0,4.396,3.564,7.961,7.961,7.961
	h242.003V258.322z"/>
<path style="fill:#8E959F;" d="M404.598,343.235h-93.405c-4.397,0-7.961,3.563-7.961,7.961v25.474
	c0,13.754,11.189,24.943,24.943,24.943h59.439c13.754,0,24.943-11.189,24.943-24.943v-25.474
	C412.559,346.799,408.994,343.235,404.598,343.235z"/>
<path style="fill:#F7B14D;" d="M404.598,343.235h-12.206c4.397,0,7.961,3.563,7.961,7.961v25.474
	c0,13.754-11.189,24.943-24.943,24.943h12.206c13.754,0,24.943-11.189,24.943-24.943v-25.474
	C412.559,346.799,408.994,343.235,404.598,343.235z"/>
<g>
	<path style="fill:#BF722A;" d="M158.35,367.647h-50.948c-4.397,0-7.961-3.563-7.961-7.961c0-4.397,3.563-7.961,7.961-7.961h50.948
		c4.397,0,7.961,3.563,7.961,7.961C166.31,364.084,162.746,367.647,158.35,367.647z"/>
	<path style="fill:#BF722A;" d="M209.298,367.647h-25.474c-4.397,0-7.961-3.563-7.961-7.961c0-4.397,3.563-7.961,7.961-7.961h25.474
		c4.397,0,7.961,3.563,7.961,7.961C217.258,364.084,213.694,367.647,209.298,367.647z"/>
</g>
</svg>